HIERARCHY
ROOT pelvis
{
  OFFSET 0 100 0
  CHANNELS 6 Xposition Yposition Zposition Zrotation Xrotation Yrotation
  JOINT pelvis_right_femur
  {
    OFFSET -10.78128 -3.44521 -0.5502486
    CHANNELS 3 Zrotation Xrotation Yrotation
    JOINT right_femur_tibia
    {
      OFFSET -0.8047443 -44.0398 -0.1307829
      CHANNELS 3 Zrotation Xrotation Yrotation
      JOINT right_tibia_foot
      {
        OFFSET 3.006224 -47.83518 -5
        CHANNELS 3 Zrotation Xrotation Yrotation
        End Site
        {
          OFFSET 0 -5 15
        }
      }
    }
  }
  JOINT pelvis_left_femur
  {
    OFFSET 10.78128 -3.44521 -0.5502486
    CHANNELS 3 Zrotation Xrotation Yrotation
    JOINT left_femur_tibia
    {
      OFFSET 0.8047443 -44.0398 -0.1307829
      CHANNELS 3 Zrotation Xrotation Yrotation
      JOINT left_tibia_foot
      {
        OFFSET -4.370144 -48.10324 -4.275266
        CHANNELS 3 Zrotation Xrotation Yrotation
        End Site
        {
          OFFSET 0 -5 15
        }
      }
    }
  }
  JOINT pelvis_spine1
  {
    OFFSET 0 6.468898 -3.129235
    CHANNELS 3 Zrotation Xrotation Yrotation
    JOINT spine1
    {
      OFFSET 0 23.15396 4.99043
      CHANNELS 3 Zrotation Xrotation Yrotation
      JOINT spine2
      {
        OFFSET 0 20.79997 -5.064912
        CHANNELS 3 Zrotation Xrotation Yrotation
        JOINT neck
        {
          OFFSET 0 14.38658 9.616178
          CHANNELS 3 Zrotation Xrotation Yrotation
          End Site
          {
            OFFSET 0 20 0
          }
        }
      }
      JOINT right_manubrium
      {
        OFFSET -5.722621 16.35077 3.967754
        CHANNELS 3 Zrotation Xrotation Yrotation
        JOINT right_clavicle
        {
          OFFSET -13.16364 1.694482 -4.693211
          CHANNELS 3 Zrotation Xrotation Yrotation
          JOINT right_humerus
          {
            OFFSET -28.5034 -0.3100689 -2.792744
            CHANNELS 3 Zrotation Xrotation Yrotation
            JOINT right_radius
            {
              OFFSET -25.15693 0.02248979 -1.271978
              CHANNELS 3 Zrotation Xrotation Yrotation
              End Site
              {
                OFFSET -15 0 0
              }
            }
          }
        }
      }
      JOINT left_manubrium
      {
        OFFSET 5.722621 16.35077 3.967754
        CHANNELS 3 Zrotation Xrotation Yrotation
        JOINT left_clavicle
        {
          OFFSET 13.16364 1.694482 -4.693211
          CHANNELS 3 Zrotation Xrotation Yrotation
          JOINT left_humerus
          {
            OFFSET 29.39168 -1.063119 -2.237045
            CHANNELS 3 Zrotation Xrotation Yrotation
            JOINT left_radius
            {
              OFFSET 24.59957 -0.9528479 0.9047498
              CHANNELS 3 Zrotation Xrotation Yrotation
              End Site
              {
                OFFSET 15 -0 -0
              }
            }
          }
        }
      }
    }
  }
}
MOTION
Frames: 17
Frame Time: 0.0416666666667
0 103.5113 0 0.4346014 -0.09843353 0.7350772 2.246198 -23.60569 5.018224 -0 31.38904 -0 -2.962174 -9.101469 -3.662323 -6.133377 12.04948 -18.35947 0 -5.034578 0 2.236947 -22.41354 21.00974 -3.344719 -1.494569 3.494053 1.736999 8.144846 -7.532019 1.354396 21.48233 7.814159 3.379301 -22.65824 9.675903 4.934578 -17.97407 10.45049 85.92103 34.18079 -18.56428 -0 0 15.47218 -12.93298 10.81368 7.509563 7.012398 -19.97208 -2.086079 -90.09834 29.04566 17.00884 0 0 -20.49664 3.141698 13.56388 10.90113
0.5443107 102.5391 3.465001 0.5981507 -0.4846872 1.537008 1.840513 -22.20825 5.157466 -0 34.04554 -0 -2.265853 -8.675791 -3.850599 -6.315958 11.42408 -18.23842 0 -4.645118 0 1.64787 -22.23424 20.96758 -3.466815 -1.375376 3.550608 1.532075 8.037074 -7.288799 1.422783 21.598 7.863328 3.349654 -22.29645 9.763134 5.034096 -17.76301 10.35176 85.5463 34.06096 -17.96695 -0 0 15.71658 -13.55417 11.04643 7.842632 6.860937 -19.4227 -2.019595 -90.20819 29.44402 17.09089 0 0 -19.70084 2.364228 13.0807 11.87836
0.9779027 101.4219 6.756654 0.1943512 0.3369342 2.15182 2.947081 -25.62528 4.931664 -0 27.28126 -0 -3.759841 -9.630265 -3.592733 -5.834406 13.05326 -18.23892 0 -3.624085 0 2.570015 -22.42041 20.70998 -3.092311 -1.588191 3.409647 2.020911 8.297085 -7.888473 1.284173 21.33718 7.725177 3.397099 -23.03327 9.537793 4.800366 -18.02172 10.57813 86.63387 34.27004 -19.68048 -0 0 14.79563 -12.18454 10.66969 6.98541 7.194089 -20.76175 -2.189047 -89.69344 28.53842 16.45334 0 0 -21.92061 4.082372 14.01015 9.715536
1.315676 100.0997 9.808444 -0.1473932 1.20043 2.642955 3.877637 -28.38505 5.07121 -0 21.99819 -0 -4.709512 -10.9897 -3.425338 -5.470153 14.15816 -18.49101 0 -3.608524 0 3.322822 -22.75368 20.68181 -2.853157 -1.755736 3.348888 2.435491 8.365675 -8.360252 1.17208 21.08854 7.665737 3.441061 -23.67264 9.431768 4.812889 -18.22834 10.74687 87.19661 34.82645 -20.91013 -0 0 14.33591 -10.87581 10.42451 6.270175 7.481317 -21.65936 -2.153992 -89.52372 28.23378 16.21466 0 0 -23.63949 5.162463 14.70075 8.430079
1.565159 98.70522 12.86838 -0.3521646 1.373576 3.030802 4.489602 -29.95942 4.954122 -0 18.50281 -0 -5.403585 -11.09238 -3.44174 -5.204479 15.0665 -18.15972 0 -1.30836 0 3.386708 -22.56022 20.21486 -2.588536 -1.803212 3.259824 2.648243 8.555944 -8.651481 1.126322 21.00056 7.558139 3.43954 -23.89191 9.274505 4.602805 -18.17913 10.85142 88.00134 34.63572 -21.96868 -0 0 13.53983 -10.44895 10.33604 5.857861 7.600099 -22.38025 -2.320942 -89.01214 27.62075 15.4982 0 0 -24.90509 6.028288 14.94907 7.312216
1.754345 97.36216 16.09719 -0.4308786 1.137783 3.345865 4.810077 -30.55879 4.775818 -0 16.74984 -0 -5.706262 -10.55727 -3.593912 -5.060076 15.67847 -17.55895 -0 2.033151 -0 2.946378 -22.10034 19.56075 -2.363906 -1.755809 3.179835 2.704242 8.745226 -8.779561 1.133918 21.01846 7.45536 3.410576 -23.80689 9.136974 4.357664 -17.93579 10.89176 88.72645 34.13344 -22.7194 -0 0 12.70575 -10.59058 10.41792 5.680311 7.594006 -22.81133 -2.536302 -88.41918 27.06448 14.62308 0 0 -25.69818 6.466963 14.85051 6.686244
1.898575 96.16365 19.62775 -0.4224158 0.5867302 3.605703 4.962187 -30.48653 4.541289 -0 16.02804 -0 -5.739719 -9.544217 -3.863265 -4.986421 16.10024 -16.68739 -0 6.538882 -0 2.085495 -21.37431 18.70816 -2.140968 -1.631233 3.104833 2.652548 8.950054 -8.800161 1.181839 21.1128 7.343855 3.358187 -23.48919 8.999283 4.067892 -17.52392 10.8923 89.44888 33.36889 -23.31113 -0 0 11.76552 -11.15585 10.64489 5.654275 7.494822 -23.06977 -2.802949 -87.72119 26.4995 13.55615 0 0 -26.23539 6.616608 14.48932 6.381949
2.007947 95.17804 23.54066 -0.358074 -0.1448665 3.820202 5.031892 -29.93549 4.319192 -0 15.89926 -0 -5.551122 -8.337102 -4.223831 -4.951687 16.31746 -15.6394 -0 11.85186 -0 0.9311168 -20.44966 17.74547 -1.916968 -1.450006 3.048737 2.53329 9.147342 -8.746589 1.257295 21.24999 7.228086 3.289489 -23.01841 8.866936 3.775683 -16.99695 10.86936 90.12091 32.49032 -23.77635 -0 0 10.79015 -11.97492 10.99096 5.724453 7.334527 -23.19022 -3.077339 -86.99132 25.98115 12.40247 0 0 -26.61119 6.518186 13.94509 6.369128
2.087218 94.46063 27.8953 -0.2556554 -1.00714 3.990268 5.071445 -28.96902 4.134371 -0 16.08093 -0 -5.175012 -7.061717 -4.66757 -4.928124 16.2992 -14.42882 -0 17.933 -0 -0.468188 -19.32142 16.70177 -1.6808 -1.219229 3.021 2.364809 9.335093 -8.634098 1.354588 21.41514 7.103414 3.20581 -22.42627 8.734547 3.487825 -16.38064 10.83347 90.73839 31.54421 -24.14055 -0 0 9.797427 -12.98321 11.44608 5.868493 7.125554 -23.20005 -3.346338 -86.2515 25.50869 11.20015 0 0 -26.88075 6.208692 13.24801 6.608938
2.140348 94.06012 32.73672 -0.1232675 -1.975062 4.111954 5.099859 -27.54006 4.002097 -0 16.45013 -0 -4.623317 -5.813265 -5.18316 -4.892086 15.95255 -13.06541 -0 24.69775 -0 -2.074903 -17.97352 15.61936 -1.429819 -0.9421963 3.036436 2.151869 9.509976 -8.460754 1.470746 21.60036 6.966009 3.107141 -21.72732 8.598754 3.208694 -15.70579 10.79046 91.27127 30.5618 -24.37767 -0 0 8.835732 -14.15706 12.00327 6.091396 6.871109 -23.0965 -3.59688 -85.5377 25.09013 10.01603 0 0 -27.03061 5.696434 12.41032 7.097141
2.172518 94.01777 38.09626 0.03241083 -3.030358 4.176729 5.125384 -25.53315 3.931136 -0 16.91018 -0 -3.911264 -4.69278 -5.747908 -4.809786 15.12675 -11.55659 -0 32.01871 -0 -3.845419 -16.38093 14.55389 -1.163344 -0.6221142 3.11668 1.894391 9.670162 -8.216317 1.602778 21.79894 6.809908 2.992667 -20.93321 8.453936 2.937933 -15.01834 10.74608 91.67406 29.56896 -24.43148 -0 0 7.980253 -15.48726 12.65161 6.412078 6.570647 -22.86639 -3.815245 -84.90063 24.73205 8.951287 0 0 -27.01083 4.987164 11.44165 7.83255
2.192242 94.35604 43.97833 0.1991666 -4.129976 4.170584 5.153368 -22.80258 3.928938 -0 17.32395 -0 -3.083081 -3.858808 -6.307021 -4.628565 13.60871 -9.940181 -0 39.55214 -0 -5.686011 -14.54419 13.59943 -0.886323 -0.2703399 3.292623 1.595762 9.811953 -7.888654 1.743547 21.99816 6.628754 2.863116 -20.07563 8.293174 2.676145 -14.40363 10.70885 91.87255 28.61499 -24.21244 -0 0 7.362068 -16.93973 13.35966 6.853102 6.227581 -22.49454 -3.979527 -84.42795 24.44782 8.181992 0 0 -26.73812 4.103891 10.37656 8.796128
2.213233 95.05687 50.34023 0.3543652 -5.186087 4.072388 5.190224 -19.22098 4.000183 -0 17.47227 -0 -2.234869 -3.544352 -6.75772 -4.275765 11.14545 -8.302987 -0 46.62596 -0 -7.427636 -12.52133 12.89189 -0.6116024 0.08728026 3.602484 1.269437 9.929347 -7.470761 1.878772 22.17505 6.417474 2.722531 -19.22283 8.108601 2.426648 -13.99952 10.6914 91.76381 27.78467 -23.60519 -0 0 7.176607 -18.42689 14.06316 7.427949 5.855048 -21.97524 -4.058184 -84.25216 24.25596 7.973451 0 0 -26.10682 3.104742 9.297271 9.929096
2.256072 96.03482 57.07306 0.4657265 -6.062512 3.854757 5.239378 -14.75293 4.138559 -0 17.08265 -0 -1.521615 -4.01874 -6.949968 -3.679033 7.518896 -6.7849 -0 52.19981 -0 -8.821756 -10.45714 12.59005 -0.3625283 0.4067718 4.081232 0.9422502 10.01571 -6.968521 1.986152 22.29707 6.175801 2.579775 -18.48553 7.893648 2.195236 -13.98866 10.7091 91.2325 27.18915 -22.48918 -0 0 7.660696 -19.79504 14.65984 8.12702 5.479451 -21.32478 -4.016477 -84.54037 24.16604 8.651751 0 0 -25.00964 2.094311 8.347402 11.11519
2.348091 97.12337 64.00131 0.5027877 -6.610622 3.491422 5.293303 -9.539464 4.317098 -0 15.95616 -0 -1.117376 -5.465598 -6.734153 -2.813676 2.685935 -5.545172 -0 55.08642 -0 -9.594651 -8.571791 12.81908 -0.1704087 0.6332643 4.738653 0.6493911 10.0684 -6.406346 2.040538 22.33275 5.912214 2.447858 -17.99279 7.647453 1.987047 -14.54217 10.77428 90.1991 26.91949 -20.78715 -0 0 9.004677 -20.85682 15.02879 8.90982 5.136948 -20.58968 -3.834549 -85.44176 24.14876 10.48548 0 0 -23.38221 1.211881 7.708116 12.18738
2.51952 98.10074 70.91562 0.4577402 -6.747966 2.971769 5.326693 -3.930139 4.488175 -0 14.16503 -0 -1.124451 -7.814307 -6.053443 -1.75141 -3.080344 -4.697704 -0 54.48716 -0 -9.567947 -7.082534 13.59759 -0.06442453 0.7233539 5.53543 0.4181337 10.09347 -5.823974 2.026415 22.27141 5.645421 2.339871 -17.83109 7.380295 1.802161 -15.71817 10.8872 88.68936 26.97657 -18.53059 -0 0 11.21778 -21.48136 15.0804 9.716952 4.860065 -19.83814 -3.529771 -86.99132 24.11459 13.49523 0 0 -21.25648 0.5853191 7.519043 12.97866
2.796085 98.76063 77.63052 0.3584103 -6.527302 2.313262 5.299094 1.602308 4.604265 -0 12.15571 -0 -1.496076 -10.66918 -5.008176 -0.6566232 -9.188768 -4.262867 -0 50.53654 -0 -8.781235 -6.097873 14.80314 -0.05876302 0.6717204 6.381063 0.2500549 10.1037 -5.262362 1.95028 22.13753 5.400613 2.263341 -17.98261 7.115786 1.635649 -17.38328 11.0296 86.87157 27.24187 -15.89742 -0 0 14.04957 -21.68695 14.81072 10.49836 4.661154 -19.13119 -3.161031 -89.02843 23.95065 17.3305 0 0 -18.78144 0.2665721 7.783136 13.40561
